<?xml version="1.0" standalone="no"?>
<!DOCTYPE svg PUBLIC "-//W3C//DTD SVG 20010904//EN"
 "http://www.w3.org/TR/2001/REC-SVG-20010904/DTD/svg10.dtd">
<svg version="1.0" xmlns="http://www.w3.org/2000/svg"
 width="256.000000pt" height="256.000000pt" viewBox="0 0 256.000000 256.000000"
 preserveAspectRatio="xMidYMid meet">
<metadata>
Created by potrace 1.11, written by Peter Selinger 2001-2013
</metadata>
<g transform="translate(0.000000,256.000000) scale(0.100000,-0.100000)"
fill="#000000" stroke="none">
<path d="M207 2550 c-101 -17 -176 -88 -197 -185 -7 -33 -9 -327 -8 -890 l3
-840 25 -3 c14 -2 32 -5 40 -8 13 -4 13 -6 0 -14 -8 -6 -27 -10 -42 -10 -38 0
-38 -32 0 -46 28 -11 29 -12 21 -65 -11 -81 -10 -158 5 -214 9 -36 10 -52 2
-61 -6 -7 -14 -10 -18 -8 -4 3 -10 -7 -14 -21 -14 -56 65 -145 154 -171 37
-12 238 -14 1117 -14 l1073 0 53 28 c61 32 113 93 129 152 7 26 9 390 8 1117
l-3 1078 -22 41 c-20 37 -93 113 -111 115 -4 0 -18 3 -32 5 -24 4 -24 4 -5
-10 19 -14 19 -15 -5 -10 -24 5 -24 5 -4 -8 23 -14 21 -40 -2 -31 -11 4 -12 8
-4 13 8 5 4 9 -10 13 -12 3 -20 3 -17 0 3 -3 -3 -15 -14 -26 -14 -16 -18 -29
-13 -54 3 -18 2 -33 -2 -33 -17 1 -41 25 -36 38 2 7 -1 18 -7 25 -7 9 -7 24 1
50 10 31 15 36 32 31 18 -6 19 -5 7 10 -12 15 -98 16 -1035 15 -561 -1 -1042
-5 -1069 -9z m2216 -45 c-3 -9 -8 -14 -10 -11 -3 3 -2 9 2 15 9 16 15 13 8 -4z
m-173 -85 c9 -17 4 -28 -32 -70 -30 -35 -46 -46 -54 -39 -9 7 -19 -5 -37 -44
-34 -71 -72 -109 -103 -101 -21 5 -24 3 -24 -20 0 -15 -7 -29 -15 -32 -8 -4
-15 -12 -15 -19 0 -7 -7 -18 -15 -25 -8 -7 -15 -23 -15 -35 0 -13 -7 -25 -15
-29 -8 -3 -15 -12 -15 -21 0 -16 -15 -46 -37 -74 -47 -60 -45 -59 -39 -26 5
34 -7 65 -18 46 -4 -6 -2 -11 4 -11 6 0 8 -10 5 -22 -18 -84 -12 -153 11 -117
4 7 9 8 17 0 7 -7 5 -18 -7 -35 -18 -29 -36 -34 -36 -11 0 8 -8 31 -19 50 -13
25 -17 49 -14 87 8 110 36 175 116 264 29 33 61 79 72 104 25 57 129 160 161
160 13 0 27 0 30 -1 4 0 10 3 13 8 6 9 50 31 63 32 4 1 12 -8 18 -19z m-2130
-120 c0 -5 -13 -10 -30 -10 -16 0 -30 5 -30 10 0 6 14 10 30 10 17 0 30 -4 30
-10z m40 -16 c0 -8 -5 -12 -10 -9 -6 4 -8 11 -5 16 9 14 15 11 15 -7z m2210
-173 c0 -25 -14 -41 -28 -32 -8 5 -10 19 -6 39 5 26 9 30 20 21 8 -6 14 -19
14 -28z m-160 -175 c0 -19 -32 -30 -42 -14 -13 21 -9 28 17 28 15 0 25 -6 25
-14z m250 -55 c13 -25 13 -91 0 -91 -13 0 -13 -43 0 -56 14 -14 1 -72 -19 -79
-12 -5 -13 -3 -4 6 8 8 8 19 1 40 -5 16 -7 36 -4 45 3 8 2 12 -4 9 -9 -6 -15
22 -11 53 1 8 -3 20 -10 28 -6 7 -8 25 -5 39 8 30 41 34 56 6z m-240 -27 c0
-31 -2 -35 -15 -24 -16 13 -20 42 -8 53 15 15 23 5 23 -29z m-665 -11 c3 -10
5 -18 4 -18 -1 0 3 -10 10 -22 15 -29 11 -29 -23 0 -18 16 -25 29 -20 40 8 22
20 22 29 0z m688 -36 c3 -8 1 -20 -4 -28 -7 -12 -11 -11 -26 4 -16 15 -16 19
-3 27 20 13 27 12 33 -3z m-1102 -185 c34 -103 65 -191 69 -195 4 -5 13 13 19
40 7 26 32 112 57 191 l45 142 33 0 c18 0 54 3 80 6 51 7 65 -9 21 -26 l-25
-10 0 -255 0 -255 25 -10 c48 -18 25 -25 -85 -26 -84 0 -110 3 -110 13 0 7 9
13 20 13 34 0 40 41 39 258 0 114 -2 203 -4 197 -26 -73 -136 -424 -141 -450
-3 -19 -12 -35 -18 -35 -8 0 -48 106 -97 251 l-84 251 -3 -205 c-3 -214 3
-255 38 -264 11 -3 20 -10 20 -17 0 -7 -24 -11 -65 -12 -47 -1 -65 3 -65 12 0
7 9 15 20 19 28 9 31 42 28 290 -3 217 -3 220 -25 230 -44 19 -23 30 61 32
l85 2 62 -187z m-981 168 c0 -5 -2 -10 -4 -10 -3 0 -8 5 -11 10 -3 6 -1 10 4
10 6 0 11 -4 11 -10z m43 -62 c8 -30 -2 -37 -19 -14 -18 25 -18 36 0 36 7 0
16 -10 19 -22z m2250 -353 c-3 -8 -9 -15 -14 -15 -10 0 -12 24 -3 33 11 11 24
-3 17 -18z m-2178 -645 c3 -5 15 -10 26 -10 19 0 27 -24 10 -34 -13 -8 -71 26
-71 42 0 14 26 16 35 2z m-152 -77 c4 -32 2 -43 -8 -43 -13 0 -19 65 -8 83 7
12 10 6 16 -40z m76 21 c3 -16 1 -17 -13 -5 -19 16 -21 34 -3 29 6 -3 14 -13
16 -24z m21 -54 c0 -5 -4 -10 -10 -10 -5 0 -10 5 -10 10 0 6 5 10 10 10 6 0
10 -4 10 -10z m140 -13 c0 -17 -20 -37 -37 -37 -16 0 -17 22 -1 38 16 16 38
15 38 -1z m-79 -158 c11 -22 2 -24 -36 -7 -14 6 -25 17 -25 23 0 19 49 5 61
-16z m54 -29 c19 -8 19 -9 -2 -9 -12 -1 -25 4 -28 9 -7 12 2 12 30 0z m-235
-157 c0 -19 -3 -24 -10 -17 -6 6 -8 18 -4 27 9 24 14 21 14 -10z m385 17 c3
-5 17 -10 31 -10 26 0 33 -17 11 -26 -21 -8 -67 14 -67 31 0 17 16 20 25 5z"/>
<path d="M1952 2148 c-15 -15 -16 -38 -2 -38 12 0 23 25 18 40 -2 7 -7 7 -16
-2z"/>
<path d="M2430 1839 c0 -5 5 -7 10 -4 6 3 10 8 10 11 0 2 -4 4 -10 4 -5 0 -10
-5 -10 -11z"/>
</g>
</svg>
